<?xml version="1.0" encoding="utf-8"?>
<!-- Generator: Adobe Illustrator 19.1.1, SVG Export Plug-In . SVG Version: 6.00 Build 0)  -->
<svg version="1.1" id="Camada_1" xmlns="http://www.w3.org/2000/svg" xmlns:xlink="http://www.w3.org/1999/xlink" x="0px" y="0px"
	 viewBox="0 0 348.6 522.7" style="enable-background:new 0 0 348.6 522.7;" xml:space="preserve">
<style type="text/css">
	.st0{fill-rule:evenodd;clip-rule:evenodd;fill:#F4F4F4;}
</style>
<g>
	<path class="st0" d="M141.9,248.4c0,0,0.6,5.4-20.9,39.5C99.5,322,93.4,470.7,93.4,470.7s-20.4,53.8,73,52
		c93.4-1.8,70.3-48.8,70.3-48.8s2.9-207.9-52.2-227.3C130.5,227.6,141.9,248.4,141.9,248.4L141.9,248.4z"/>
	<path class="st0" d="M174.3,40.4c96.2,0,174.3,78,174.3,174.3c0,96.2-78,174.3-174.3,174.3C78,389,0,311,0,214.7
		C0,118.5,78,40.4,174.3,40.4L174.3,40.4z"/>
	<path class="st0" d="M132.4,58.1l-21.8-18.9l26.1-5.8L139.6,0l16,29L202.1,16c0,0-5.8,14.5-5.8,18.9c0,4.4,33.4,7.3,33.4,7.3
		l-18.9,11.6l-1.5,16l-33.4,1.5L149.8,61L132.4,58.1L132.4,58.1z"/>
</g>
</svg>
