<?xml version="1.0" encoding="utf-8"?>
<!-- Generator: Adobe Illustrator 19.1.1, SVG Export Plug-In . SVG Version: 6.00 Build 0)  -->
<svg version="1.1" id="Camada_1" xmlns="http://www.w3.org/2000/svg" xmlns:xlink="http://www.w3.org/1999/xlink" x="0px" y="0px"
	 viewBox="0 0 249 232.6" style="enable-background:new 0 0 249 232.6;" xml:space="preserve">
<style type="text/css">
	.st0{fill-rule:evenodd;clip-rule:evenodd;fill:#FFFFFF;}
	.st1{fill:#FF943A;}
</style>
<g>
	<polygon class="st0" points="0,0 249,0 249,232.6 0,0 	"/>
</g>
<path class="st1" d="M162.2,41.5l-30.7,30.7l-4.1-4.1l8.2-39.2l-23.7,23.7l-4.1-4.1l30.7-30.7l4.1,4.1l-8.3,39.3l23.8-23.8
	L162.2,41.5L162.2,41.5z M169.3,87.1l-0.3,0.3c-2.2,2.2-4.6,3.8-7.3,4.7c-2.6,0.9-5.2,1.1-7.8,0.5c-2.6-0.6-4.9-1.9-6.9-4
	c-3.1-3.1-4.5-6.7-4.3-10.8c0.2-4.1,2.1-7.9,5.7-11.4l0.3-0.3c2.2-2.2,4.7-3.8,7.4-4.7c2.7-0.9,5.3-1.1,7.8-0.5
	c2.5,0.6,4.8,1.9,6.8,3.9c3.1,3.1,4.5,6.7,4.3,10.8C174.8,79.7,172.8,83.5,169.3,87.1L169.3,87.1z M167.5,68.1
	c-1.9-1.9-4.3-2.7-7-2.4c-2.7,0.4-5.5,2-8.4,4.8c-2.5,2.5-4,5.2-4.3,7.9c-0.4,2.7,0.4,5.1,2.4,7c2,2,4.3,2.8,7.1,2.4
	c2.7-0.4,5.5-2,8.3-4.8c2.5-2.5,3.9-5.1,4.3-7.9C170.2,72.4,169.4,70,167.5,68.1L167.5,68.1z M202.4,97.5l-31,14.7l-3-3L183,78l4,4
	l-11.7,23.4l23.2-11.9L202.4,97.5L202.4,97.5z M214.2,132.1l-0.3,0.3c-2.2,2.2-4.7,3.8-7.3,4.7c-2.6,0.9-5.2,1.1-7.8,0.5
	c-2.6-0.6-4.9-1.9-6.9-4c-3.1-3.1-4.5-6.7-4.3-10.8c0.2-4.1,2.1-7.9,5.7-11.4l0.3-0.3c2.2-2.2,4.7-3.8,7.4-4.7
	c2.7-0.9,5.3-1.1,7.8-0.5c2.5,0.6,4.8,1.9,6.8,3.9c3.1,3.1,4.6,6.7,4.3,10.8C219.7,124.7,217.8,128.5,214.2,132.1L214.2,132.1z
	 M212.4,113c-1.9-1.9-4.2-2.7-7-2.4c-2.7,0.3-5.5,2-8.4,4.8c-2.5,2.5-4,5.2-4.3,7.9c-0.4,2.7,0.5,5,2.4,7c2,2,4.3,2.8,7.1,2.4
	c2.7-0.4,5.5-2,8.3-4.8c2.5-2.5,3.9-5.1,4.3-7.9C215.2,117.4,214.4,115,212.4,113L212.4,113z"/>
</svg>
