<?xml version="1.0" encoding="utf-8"?>
<!-- Generator: Adobe Illustrator 19.1.1, SVG Export Plug-In . SVG Version: 6.00 Build 0)  -->
<svg version="1.1" id="Camada_1" xmlns="http://www.w3.org/2000/svg" xmlns:xlink="http://www.w3.org/1999/xlink" x="0px" y="0px"
	 viewBox="0 0 359 315.3" style="enable-background:new 0 0 359 315.3;" xml:space="preserve">
<path d="M302.9,79.2v55.9h-22.4V79.2h-56.1V56.3h56.1V0.4h22.4v55.9H359v22.9H302.9L302.9,79.2z M177.8,22.5h-30
	c19.9,11.3,31.6,29.5,31.6,53.4c0,20.1-12.1,35.9-27.8,48.2c-15.3,12-18.2,17-18.2,27.2c0,8.7,16.4,23.5,24.9,29.6
	c25,17.8,32.4,34.2,32.4,61.7c0,34.3-32.4,72.7-92.3,72.7c-52.6,0-98.3-25.7-98.3-60c0-34.8,41.9-68.5,94.5-68.5
	c5.7,0,11-0.2,16.4-0.2c-7.2-7-12.9-15.8-12.9-26.4c0-6.3,2-12.6,4.8-18c-2.9,0.2-5.8-0.3-8.8-0.3c-43.2,0-72.1-31.9-72.1-70.1
	C21.9,34.4,61.8,0,104.3,0C128,0,199,0,199,0L177.8,22.5L177.8,22.5z M104.5,195.7c-36.3-0.4-68.9,22.2-68.9,49.4
	c0,27.7,26.2,48,62.6,48c51.1,0,68.9-18.9,68.9-46.6c0-3.3-0.4-6.6-1.2-9.8c-4-15.7-18.2-23.5-37.9-37.2
	C120.8,197.1,112.9,195.8,104.5,195.7L104.5,195.7z M145.3,76.4c-4.2-32.1-28.5-57.9-52.8-58.7c-24.4-0.7-40.7,23.9-36.5,56
	c4.2,32.1,27.4,58.8,51.8,59.5C132.1,134,149.5,108.5,145.3,76.4L145.3,76.4z"/>
</svg>
