<?xml version="1.0" encoding="utf-8"?>
<!-- Generator: Adobe Illustrator 19.1.1, SVG Export Plug-In . SVG Version: 6.00 Build 0)  -->
<svg version="1.1" id="Camada_1" xmlns="http://www.w3.org/2000/svg" xmlns:xlink="http://www.w3.org/1999/xlink" x="0px" y="0px"
	 viewBox="0 0 428.3 777.5" style="enable-background:new 0 0 428.3 777.5;" xml:space="preserve">
<style type="text/css">
	.st0{fill:#778B8E;}
	.st1{fill-rule:evenodd;clip-rule:evenodd;fill:#AC97F1;}
	.st2{fill-rule:evenodd;clip-rule:evenodd;fill:#E485EA;}
</style>
<path class="st0" d="M350,773.8C293.7,789,235.7,755.5,220.6,699c-15.1-56.5,18.3-114.5,74.7-129.6c56.4-15.1,114.3,18.4,129.4,74.8
	C439.8,700.7,406.4,758.7,350,773.8L350,773.8z M396.6,651.8c-10.9-40.9-52.9-65.1-93.7-54.2c-40.8,10.9-65,53-54.1,93.8
	c10.9,40.9,52.9,65.1,93.7,54.2C383.3,734.7,407.5,692.7,396.6,651.8L396.6,651.8z M274.1,586.6l-74.5-278.5l24.6-6.6L298.7,580
	L274.1,586.6L274.1,586.6z"/>
<path class="st1" d="M313.6,126.6c17,81.8-32.5,163.6-114.1,185.5C117.9,334,34.1,287.9,8,208.6L313.6,126.6L313.6,126.6z"/>
<path class="st2" d="M4.1,194.5c-19.2-83,30.6-166.9,113.3-189.1C200.2-16.8,285.2,31,310,112.4L4.1,194.5L4.1,194.5z"/>
</svg>
