<?xml version="1.0" encoding="utf-8"?>
<!-- Generator: Adobe Illustrator 19.1.1, SVG Export Plug-In . SVG Version: 6.00 Build 0)  -->
<svg version="1.1" id="Camada_1" xmlns="http://www.w3.org/2000/svg" xmlns:xlink="http://www.w3.org/1999/xlink" x="0px" y="0px"
	 viewBox="0 0 311.9 243.8" style="enable-background:new 0 0 311.9 243.8;" xml:space="preserve">
<style type="text/css">
	.st0{fill-rule:evenodd;clip-rule:evenodd;}
</style>
<path fill="#f69343" class="st0" d="M47.9,84.9c-2.4,0-4.4-2-4.4-4.4c0-20.4,16.6-37,37-37c0,0,0,0,0,0c2.4,0,4.4,1.9,4.4,4.4
	c0,2.4-1.9,4.4-4.4,4.4h0c-15.6,0-28.3,12.7-28.3,28.3v0C52.3,83,50.3,84.9,47.9,84.9L47.9,84.9z M259.9,69.4
	c-2.5-12.1-8.5-23.7-17.9-33c-24.8-24.5-64.6-25.4-90.7-1.9L139.4,45l-11.8-10.6C101.5,11,61.7,11.8,36.9,36.4
	c-25.7,25.4-25.7,66.8,0,92.2l96.4,95.3c3.4,3.4,9,3.4,12.4,0l23.8-23.5h24.9c-19.5,19.3-36.2,35.8-36.2,35.8
	c-10.3,10.2-27,10.2-37.3,0c0,0-87-86.1-96.3-95.3c-32.6-32.3-32.6-84.6,0-116.8c31.6-31.3,82.2-32,115-2.5
	c32.8-29.5,83.4-28.8,115,2.5c12.9,12.8,20.6,28.7,23.3,45.3H259.9L259.9,69.4z"/>
<path fill="#f69343" d="M290.8,76.8H164.7c-11.6,0-21,9.5-21,21.2v68.9c0,11.7,9.4,21.2,21,21.2h126.2c11.6,0,21-9.5,21-21.2V98
	C311.9,86.3,302.5,76.8,290.8,76.8L290.8,76.8z M154.2,104.6l36.8,27.8l-36.8,27.8V104.6L154.2,104.6z M301.4,166.9
	c0,5.8-4.7,10.6-10.5,10.6H164.7c-5.8,0-10.5-4.7-10.5-10.6l41.2-31.1l23,17.4c2.8,2.1,6.1,3.2,9.5,3.2c3.3,0,6.7-1.1,9.5-3.2
	l23-17.4L301.4,166.9L301.4,166.9L301.4,166.9z M301.4,160.2l-36.8-27.8l36.8-27.8V160.2L301.4,160.2z M234.1,148.9
	c-1.8,1.4-4,2.1-6.3,2.1c-2.3,0-4.5-0.7-6.3-2.1l-21.7-16.4l-4.4-3.3L154.2,98v0c0-5.8,4.7-10.6,10.5-10.6h126.2
	c5.8,0,10.5,4.8,10.5,10.6L234.1,148.9L234.1,148.9z"/>
</svg>
