<?xml version="1.0" encoding="utf-8"?>
<!-- Generator: Adobe Illustrator 19.1.1, SVG Export Plug-In . SVG Version: 6.00 Build 0)  -->
<svg version="1.1" id="Camada_1" xmlns="http://www.w3.org/2000/svg" xmlns:xlink="http://www.w3.org/1999/xlink" x="0px" y="0px"
	 viewBox="0 0 486 222.3" style="enable-background:new 0 0 486 222.3;" xml:space="preserve">
<style type="text/css">
	.st0{fill:#F9F2D2;}
	.st1{fill-rule:evenodd;clip-rule:evenodd;fill:#FF5075;}
</style>
<path class="st0" d="M409.4,179.5H76.6C34.3,179.5,0,145.2,0,102.9V76.6C0,34.3,34.3,0,76.6,0h332.8C451.7,0,486,34.3,486,76.6v26.3
	C486,145.2,451.7,179.5,409.4,179.5L409.4,179.5z M28.8,221.2c18.9-9.1,34.6-43.9,34.6-43.9h30.6C83.8,201.5,44.9,216.1,28.8,221.2
	L28.8,221.2z M28.8,221.2c-2.3,1.1-4.6,1.8-7,2.1C21.9,223.3,24.6,222.6,28.8,221.2L28.8,221.2z"/>
<path class="st1" d="M290,101.6c0,0-38,36.3-47.2,36.4c-9.3,0.1-47-36.4-47-36.4c-13-14.2-13-37.3,0-51.5c13-14.2,34.1-14.2,47.1,0
	c13-14.2,34.1-14.2,47.1,0C303,64.3,303,87.3,290,101.6L290,101.6z"/>
</svg>
