<?xml version="1.0" encoding="utf-8"?>
<!-- Generator: Adobe Illustrator 19.1.1, SVG Export Plug-In . SVG Version: 6.00 Build 0)  -->
<svg version="1.1" id="Camada_1" xmlns="http://www.w3.org/2000/svg" xmlns:xlink="http://www.w3.org/1999/xlink" x="0px" y="0px"
	 viewBox="0 0 281 193.7" style="enable-background:new 0 0 281 193.7;" xml:space="preserve">
<path fill="#fff" d="M245.9,0H35.1C15.7,0,0,16.5,0,36.9v119.9c0,20.4,15.7,36.9,35.1,36.9h210.8c19.4,0,35.1-16.5,35.1-36.9V36.9
	C281,16.5,265.3,0,245.9,0L245.9,0z M17.6,48.4L79,96.8l-61.5,48.4V48.4L17.6,48.4z M263.4,156.8c0,10.2-7.9,18.5-17.6,18.5H35.1
	c-9.7,0-17.6-8.3-17.6-18.5l68.8-54.2l38.4,30.2c4.7,3.7,10.2,5.5,15.8,5.5c5.6,0,11.1-1.9,15.8-5.5l38.4-30.2L263.4,156.8
	L263.4,156.8L263.4,156.8z M263.4,145.3L202,96.8l61.5-48.4V145.3L263.4,145.3z M151,125.5c-3.1,2.4-6.7,3.7-10.5,3.7
	c-3.8,0-7.5-1.3-10.6-3.7L93.7,96.8l-7.3-5.8L17.6,36.9v0c0-10.2,7.9-18.4,17.6-18.4h210.8c9.7,0,17.6,8.3,17.6,18.4L151,125.5
	L151,125.5z"/>
</svg>
