<?xml version="1.0" encoding="utf-8"?>
<!-- Generator: Adobe Illustrator 19.1.1, SVG Export Plug-In . SVG Version: 6.00 Build 0)  -->
<svg version="1.1" id="Camada_1" xmlns="http://www.w3.org/2000/svg" xmlns:xlink="http://www.w3.org/1999/xlink" x="0px" y="0px"
	 viewBox="0 0 116.5 116.4" style="enable-background:new 0 0 116.5 116.4;" xml:space="preserve">
<path fill="#ffffff"   d="M17.1,0h82.2c9.4,0,17.1,7.7,17.1,17.1h0l0,82.1l0,0c0,9.4-7.8,17.1-17.1,17.1H17.1l0,0C7.7,116.4,0,108.7,0,99.3V17.1h0
	C0,7.8,7.8,0,17.1,0L17.1,0L17.1,0z M64.3,31.1c2.5,0,4.5,2,4.5,4.5c0,2.5-2,4.5-4.5,4.5c-2.5,0-4.5-2-4.5-4.5
	C59.8,33.1,61.8,31.1,64.3,31.1L64.3,31.1z M56.5,82.1c-0.6,2.4-3.1,3.8-5.5,3.2c-2.4-0.6-3.8-3.1-3.2-5.5l8.4-31.6
	c0.6-2.4,3.1-3.8,5.5-3.2c2.4,0.7,3.8,3.1,3.2,5.5L56.5,82.1L56.5,82.1z M99.3,8.9H17.1l0,0c-4.5,0-8.2,3.7-8.2,8.2l0,0v82.1
	c0,4.5,3.7,8.2,8.2,8.2l0,0h82.2c4.5,0,8.2-3.8,8.2-8.2h0l0-82.1h0C107.5,12.7,103.8,8.9,99.3,8.9L99.3,8.9z"/>
</svg>
