<?xml version="1.0" encoding="utf-8"?>
<!-- Generator: Adobe Illustrator 19.1.1, SVG Export Plug-In . SVG Version: 6.00 Build 0)  -->
<svg version="1.1" id="Camada_1" xmlns="http://www.w3.org/2000/svg" xmlns:xlink="http://www.w3.org/1999/xlink" x="0px" y="0px"
	 viewBox="0 0 365 220.9" style="enable-background:new 0 0 365 220.9;" xml:space="preserve">
<path d="M350.6,28.8H14.4C6.5,28.8,0,22.4,0,14.4C0,6.5,6.5,0,14.4,0h336.2c8,0,14.4,6.5,14.4,14.4C365,22.4,358.5,28.8,350.6,28.8
	L350.6,28.8z M350.6,124.9H14.4c-8,0-14.4-6.5-14.4-14.4s6.5-14.4,14.4-14.4h336.2c8,0,14.4,6.5,14.4,14.4S358.5,124.9,350.6,124.9
	L350.6,124.9z M350.6,220.9H14.4c-8,0-14.4-6.5-14.4-14.4s6.5-14.4,14.4-14.4h336.2c8,0,14.4,6.5,14.4,14.4S358.5,220.9,350.6,220.9
	L350.6,220.9z"/>
</svg>
