<?xml version="1.0" encoding="utf-8"?>
<!-- Generator: Adobe Illustrator 19.1.1, SVG Export Plug-In . SVG Version: 6.00 Build 0)  -->
<svg version="1.1" id="Camada_1" xmlns="http://www.w3.org/2000/svg" xmlns:xlink="http://www.w3.org/1999/xlink" x="0px" y="0px"
	 viewBox="0 0 322 328.7" style="enable-background:new 0 0 322 328.7;" xml:space="preserve">
<path fill="#ffffff" d="M313.2,291.6c-2-1.3-38.2-25.6-92.2-37.5c19.8-25.6,32.5-59.9,37.9-82.8c7.5-31.7,4.6-93.8-25.3-132.4
	C216.1,16.2,191.7,4.3,163,4.3c-28.7,0-53.2,11.9-70.6,34.5C62.5,77.5,59.6,139.5,67.1,171.2c5.4,22.9,18.1,57.3,37.9,82.8
	c-53.9,11.9-90.2,36.1-92.2,37.5c-7.3,5-10.5,14.2-8,22.7c2.5,8.6,10.3,14.4,19,14.4h278.3c8.8,0,16.5-5.9,19-14.4
	C323.7,305.8,320.4,296.5,313.2,291.6L313.2,291.6z M205.4,241.5l-3.2,4.2c-23.7,27.8-54.6,27.8-78.3,0l-3.2-4.2
	c-27.7-35.8-41.4-83.1-35.5-128.2c5.4-43.4,29.8-88.7,77.9-88.7s72.5,45.3,77.9,88.7C246.8,158.4,233.1,205.7,205.4,241.5
	L205.4,241.5z M23.8,308.4c1.4-0.9,35-23.5,85.3-34.5l24.7-5.5c8.8,5.9,18.5,9.6,29.1,9.6c10.6,0,20.3-3.7,29.1-9.6l24.7,5.5
	c49.9,11,83.5,33.3,85.3,34.5H23.8L23.8,308.4z"/>
</svg>
