<?xml version="1.0" encoding="utf-8"?>
<!-- Generator: Adobe Illustrator 19.1.1, SVG Export Plug-In . SVG Version: 6.00 Build 0)  -->
<svg version="1.1" id="Camada_1" xmlns="http://www.w3.org/2000/svg" xmlns:xlink="http://www.w3.org/1999/xlink" x="0px" y="0px"
	 viewBox="0 0 416 195.6" style="enable-background:new 0 0 416 195.6;" xml:space="preserve">
<style type="text/css">
	.st0{fill:#F9F2D2;}
	.st1{fill:#668359;}
</style>
<g>
	<path class="st0" d="M350.4,158.1H65.6C29.4,158.1,0,128.7,0,92.5V70C0,33.8,29.4,4.4,65.6,4.4h284.8C386.6,4.4,416,33.8,416,70
		v22.5C416,128.7,386.6,158.1,350.4,158.1L350.4,158.1z M24.7,193.8c16.2-7.7,29.7-37.6,29.7-37.6h26.2
		C71.7,176.9,38.4,189.4,24.7,193.8L24.7,193.8z M24.7,193.8c-1.9,0.9-3.9,1.6-5.9,1.8C18.7,195.6,21,195,24.7,193.8L24.7,193.8z"/>
	<path class="st1" d="M215.3,110.6l-11,10.8c-1.5,1.5-4,1.5-5.5,0L152.8,76c-1.5-1.5-1.5-3.9,0-5.4l11-10.8c1.5-1.5,4-1.5,5.5,0
		l46.1,45.4C216.8,106.7,216.8,109.1,215.3,110.6L215.3,110.6z M272.4,49.5l-69.1,71.8c-1.5,1.5-3.9,1.5-5.4,0l-10.8-10.6
		c-1.5-1.5-1.5-3.9,0-5.3l69.1-71.8c1.5-1.5,3.9-1.5,5.4,0l10.8,10.6C273.9,45.7,273.9,48.1,272.4,49.5L272.4,49.5z"/>
</g>
</svg>
