<?xml version="1.0" encoding="utf-8"?>
<!-- Generator: Adobe Illustrator 19.1.1, SVG Export Plug-In . SVG Version: 6.00 Build 0)  -->
<svg version="1.1" id="Camada_1" xmlns="http://www.w3.org/2000/svg" xmlns:xlink="http://www.w3.org/1999/xlink" x="0px" y="0px"
	 viewBox="0 0 290 306" style="enable-background:new 0 0 290 306;" xml:space="preserve">
<path d="M175.9,174c-8.3,0-15.1-6.8-15.1-15.1c0-8.3,6.8-15.1,15.1-15.1c8.3,0,15.1,6.8,15.1,15.1C190.9,167.2,184.2,174,175.9,174
	L175.9,174z M175.9,154.8c-2.2,0-4.1,1.8-4.1,4.1c0,2.2,1.8,4.1,4.1,4.1c2.2,0,4.1-1.8,4.1-4.1C179.9,156.6,178.1,154.8,175.9,154.8
	L175.9,154.8z M115.3,174c-8.3,0-15.1-6.8-15.1-15.1c0-8.3,6.8-15.1,15.1-15.1c8.3,0,15.1,6.8,15.1,15.1
	C130.4,167.2,123.6,174,115.3,174L115.3,174z M115.3,154.8c-2.2,0-4.1,1.8-4.1,4.1c0,2.2,1.8,4.1,4.1,4.1c2.2,0,4.1-1.8,4.1-4.1
	C119.4,156.6,117.6,154.8,115.3,154.8L115.3,154.8z M146.2,279.3c-22.9,0-41.5-18.6-41.5-41.6c0-22.9,18.6-41.6,41.5-41.6
	c22.9,0,41.5,18.6,41.5,41.6C187.7,260.6,169.1,279.3,146.2,279.3L146.2,279.3z M146.2,207.2c-16.8,0-30.5,13.7-30.5,30.5
	c0,16.8,13.7,30.5,30.5,30.5c16.8,0,30.5-13.7,30.5-30.5C176.7,220.9,163,207.2,146.2,207.2L146.2,207.2z M151.8,252.2
	c-8,0-14.4-6.5-14.4-14.5c0-8,6.5-14.5,14.4-14.5c8,0,14.4,6.5,14.4,14.5C166.2,245.7,159.7,252.2,151.8,252.2L151.8,252.2z
	 M151.8,234.3c-1.9,0-3.4,1.5-3.4,3.4c0,1.9,1.5,3.4,3.4,3.4c1.9,0,3.4-1.5,3.4-3.4C155.2,235.8,153.6,234.3,151.8,234.3
	L151.8,234.3z M266.5,207c-10.9,54.6-58,95.9-113.6,98.8c-2.2,0.1-4.4,0.2-6.6,0.2C87.6,306,37.4,264.8,26,207.2
	c-14.4-0.4-26-11.5-26-26c0-14.7,12-26.1,26.7-26.1c0.2,0,0.3,0,0.5,0c5.6-22.1,17.6-44.3,34.8-60.7c7.3-6.9,12.1-16.1,13.9-25.8
	c2.5-13.8,5.2-34.6,4.3-54.7c-0.1-3,2.2-5.7,5.2-5.9c2.9-0.2,5.6,2.2,5.8,5.2c1,21.2-1.9,42.7-4.4,57c-2.2,12.1-8.1,23-17.1,31.5
	c-16.9,16-28.2,36.4-32.7,59.2c-0.3,1.5-1.2,2.7-2.4,3.5c-1.3,0.8-2.8,1.1-4.2,0.7c-1.3-0.3-2.5-0.4-3.5-0.4
	c-8.6,0-15.7,7-15.7,15.7c0,8.7,7,15.7,15.7,15.7c1,0,1.9-0.1,2.9-0.3c1.5-0.3,3,0.1,4.2,0.9c1.2,0.9,2,2.2,2.3,3.6
	c8.8,56.8,58.7,97.4,116.3,94.3c52.1-2.7,95.9-42.3,104.2-94.1c0.4-2.8,3-6,5.8-5.8c0.3,0,0.7-1.1,1-1.1c0,0,0,0,0.1,0
	c8.7,0,15.7-5.8,15.7-14.4c0-8.7-7-15.1-15.7-15.1c-0.3,0-0.6,0.4-0.9,0.4l-0.8,0.3c-2.8,0.3-5.4-1.5-6-4.3
	c-10.5-51.8-56.5-89.4-109.3-89.4c-3.3,0-32-0.9-39.7-19c-5.5-12.9,1.5-29.4,21.3-50.5c2.1-2.2,5.6-2.3,7.8-0.2s2.3,5.6,0.2,7.8
	c-15.8,16.8-22.6,30.5-19.2,38.6c4.1,9.8,23.3,12.2,29.6,12.3c56.4,0,105.8,39.1,119,93.7c13.8,1,24.6,12.6,24.6,26.7
	C290,194.2,279.7,205.5,266.5,207L266.5,207z"/>
</svg>
