<?xml version="1.0" encoding="utf-8"?>
<!-- Generator: Adobe Illustrator 19.1.1, SVG Export Plug-In . SVG Version: 6.00 Build 0)  -->
<svg version="1.1" id="Camada_1" xmlns="http://www.w3.org/2000/svg" xmlns:xlink="http://www.w3.org/1999/xlink" x="0px" y="0px"
	 viewBox="0 0 214 290" style="enable-background:new 0 0 214 290;" xml:space="preserve">
<style type="text/css">
	.st0{fill:#FF943A;}
</style>
<path class="st0" d="M44,202.2c-24.3,0-44-19.6-44-43.8c0-24.2,19.7-43.8,44-43.8c24.3,0,44,19.6,44,43.8
	C88,182.6,68.3,202.2,44,202.2L44,202.2z M161.4,87.8c-24.3,0-44-19.7-44-43.9c0-24.3,19.7-43.9,44-43.9c24.3,0,44,19.7,44,43.9
	C205.4,68.2,185.7,87.8,161.4,87.8L161.4,87.8z M170,290c-24.3,0-44-19.7-44-43.9c0-24.3,19.7-43.9,44-43.9c24.3,0,44,19.7,44,43.9
	C214,270.3,194.3,290,170,290L170,290z M42.1,147.4l-5.9-7.8L158.4,47l5.9,7.8L42.1,147.4L42.1,147.4z M163.2,254.7l-132-102.4
	l6-7.7l132,102.5L163.2,254.7L163.2,254.7z"/>
</svg>
